<svg xmlns="http://www.w3.org/2000/svg" viewBox="0 0 28 28" width="28" height="28">
  <path fill="currentColor" d="M27.113,12.417c0-5.865-5.88-10.637-13.107-10.637S0.898,6.552,0.898,12.417c0,5.258,4.663,9.662,10.962,10.495c0.427,0.092,1.008,0.282,1.155,0.646c0.132,0.331,0.086,0.85,0.042,1.185c0,0-0.153,0.925-0.187,1.122c-0.057,0.331-0.263,1.296,1.135,0.707c1.399-0.589,7.548-4.445,10.298-7.611h-0.001C26.203,16.879,27.113,14.764,27.113,12.417z M8.875,15.907H6.271c-0.379,0-0.687-0.308-0.687-0.688V10.01c0-0.379,0.308-0.687,0.687-0.687c0.379,0,0.687,0.308,0.687,0.687v4.521h1.917c0.379,0,0.687,0.308,0.687,0.687C9.562,15.598,9.254,15.907,8.875,15.907z M11.568,15.219c0,0.379-0.308,0.688-0.687,0.688s-0.687-0.308-0.687-0.688V10.01c0-0.379,0.308-0.687,0.687-0.687s0.687,0.308,0.687,0.687V15.219z M17.838,15.219c0,0.297-0.188,0.559-0.47,0.652c-0.071,0.024-0.145,0.036-0.218,0.036c-0.215,0-0.42-0.103-0.549-0.275l-2.669-3.635v3.222c0,0.379-0.308,0.688-0.688,0.688c-0.379,0-0.688-0.308-0.688-0.688V10.01c0-0.296,0.189-0.558,0.47-0.652c0.071-0.024,0.144-0.035,0.218-0.035c0.214,0,0.42,0.103,0.549,0.275l2.67,3.635V10.01c0-0.379,0.309-0.687,0.688-0.687c0.379,0,0.687,0.308,0.687,0.687V15.219z M22.052,11.927c0.379,0,0.688,0.308,0.688,0.688c0,0.379-0.308,0.687-0.688,0.687h-1.917v1.23h1.917c0.379,0,0.688,0.308,0.688,0.687c0,0.379-0.309,0.688-0.688,0.688h-2.604c-0.378,0-0.687-0.308-0.687-0.688v-2.603c0-0.001,0-0.001,0-0.001c0,0,0-0.001,0-0.001v-2.601c0-0.001,0-0.001,0-0.002c0-0.379,0.308-0.687,0.687-0.687h2.604c0.379,0,0.688,0.308,0.688,0.687s-0.308,0.687-0.688,0.687h-1.917v1.23H22.052z"/>
</svg>
